<svg width="191" height="36" viewBox="0 0 191 36" fill="none" xmlns="http://www.w3.org/2000/svg">
<g clip-path="url(#clip0_6977_36750)">
<path d="M56.6529 26.1937C57.0428 26.94 57.6051 27.5825 58.293 28.068C58.9892 28.5987 59.7865 28.9814 60.636 29.1927C61.5716 29.42 62.5317 29.5302 63.4945 29.5207H65.6031C66.3332 29.4016 67.043 29.1807 67.7118 28.8647C68.3677 28.5631 68.945 28.114 69.3988 27.5526C69.8512 26.9629 70.0833 26.2335 70.0548 25.4908C70.0767 25.0739 70.0085 24.6572 69.8549 24.2691C69.7012 23.8809 69.4658 23.5304 69.1645 23.2415C68.4998 22.6255 67.7193 22.1476 66.8683 21.8357C65.8144 21.4462 64.7339 21.133 63.635 20.8985L59.98 19.9613C58.7401 19.6417 57.5196 19.2506 56.3249 18.7899C55.1662 18.3569 54.0769 17.757 53.0916 17.0092C52.1376 16.2937 51.3668 15.3623 50.8424 14.2913C50.2086 13.0789 49.9017 11.7222 49.952 10.3551C49.889 8.71942 50.2781 7.09804 51.0766 5.66913C51.7988 4.40616 52.7909 3.31814 53.9819 2.48267C55.2051 1.62668 56.5692 0.992234 58.0119 0.608276C59.5375 0.186371 61.115 -0.0186856 62.6978 -0.000886565C64.4037 -0.0118782 66.1042 0.19279 67.7587 0.608276C69.2959 0.97135 70.7558 1.60612 72.0698 2.48267C73.3162 3.361 74.3427 4.51573 75.0688 5.85657C75.8552 7.40824 76.2417 9.13167 76.1934 10.8706H68.9302C68.8928 9.99019 68.6693 9.12774 68.2742 8.34013C67.9296 7.70931 67.4296 7.177 66.8215 6.79375C66.2095 6.39682 65.5245 6.126 64.8065 5.99715C63.9647 5.92354 63.118 5.92354 62.2761 5.99715C61.6689 5.92786 61.0558 5.92786 60.4486 5.99715C59.901 6.18335 59.3926 6.46933 58.9491 6.84062C58.4673 7.14387 58.0526 7.54255 57.7307 8.01211C57.3946 8.54311 57.2309 9.16508 57.2621 9.79277C57.2466 10.3623 57.3756 10.9266 57.637 11.4329C58.0335 11.9287 58.5495 12.3157 59.1365 12.5575C60.1178 12.9945 61.1374 13.3396 62.1824 13.5884L67.2901 14.9005L69.9142 15.6034C71.0932 15.9526 72.2143 16.4736 73.2413 17.1497C74.3846 17.9102 75.3579 18.8995 76.0997 20.055C76.9602 21.4622 77.3842 23.0929 77.3181 24.741C77.3171 26.2236 77.0141 27.6904 76.4277 29.0521C75.8031 30.3769 74.8905 31.5456 73.7567 32.4729C72.4329 33.477 70.9416 34.2386 69.3519 34.7221C67.3858 35.2772 65.3498 35.5455 63.307 35.5187C61.4875 35.5249 59.6752 35.2885 57.9182 34.8158C56.223 34.4319 54.6268 33.6977 53.2322 32.6603C51.885 31.7036 50.7913 30.4329 50.0457 28.9584C49.2107 27.2897 48.8232 25.4329 48.9211 23.5695H56.0906C56.0838 24.4748 56.2757 25.3706 56.6529 26.1937Z" fill="#394A8F"/>
<path d="M86.1752 28.6312C86.7676 29.1522 87.4585 29.5492 88.2071 29.7987C88.9556 30.0482 89.7465 30.1451 90.5331 30.0838C91.7614 30.1102 92.9694 29.7674 94.0007 29.0998C94.8272 28.6105 95.457 27.8482 95.7814 26.9442H101.686C101.014 29.4836 99.4718 31.7061 97.3277 33.2234C95.1989 34.5165 92.7418 35.1674 90.2519 35.0978C88.4902 35.1111 86.7417 34.7932 85.0974 34.1606C83.6012 33.5998 82.2543 32.7018 81.1612 31.5364C80.0768 30.3692 79.2329 28.9998 78.6776 27.5065C78.0539 25.8419 77.7211 24.0825 77.6936 22.3051C77.6711 20.5621 77.973 18.83 78.5839 17.1974C79.1667 15.693 80.0248 14.3105 81.1143 13.1206C82.2572 11.9913 83.5895 11.0714 85.0505 10.4028C86.6536 9.73594 88.3752 9.40118 90.1114 9.41871C91.9953 9.37813 93.8608 9.79624 95.5471 10.637C97.0516 11.3974 98.3529 12.5059 99.3427 13.8704C100.363 15.275 101.096 16.8675 101.498 18.5563C101.941 20.3161 102.099 22.1354 101.967 23.9452H84.4413C84.3886 25.6731 85.0105 27.3537 86.1752 28.6312ZM93.7195 15.7916C93.2395 15.3244 92.6649 14.9655 92.0343 14.7391C91.4038 14.5128 90.7321 14.4243 90.0645 14.4795C89.1571 14.4505 88.2563 14.6436 87.4404 15.0419C86.7676 15.3372 86.1736 15.7867 85.7065 16.3539C85.3095 16.8746 85.008 17.4616 84.8162 18.0877C84.6623 18.6064 84.568 19.1409 84.5351 19.681H95.4065C95.22 18.252 94.6354 16.9043 93.7195 15.7916Z" fill="#394A8F"/>
<path d="M135.518 5.01425V19.0722L142.688 11.5277C143.081 11.1146 143.553 10.7853 144.076 10.5597C144.6 10.3342 145.164 10.2172 145.734 10.2157H151.872L142.5 19.2127L152.716 34.6296H147.14C146.422 34.6326 145.716 34.4484 145.091 34.095C144.467 33.7416 143.945 33.2313 143.578 32.6146L138.096 23.7113L135.518 26.2417V34.489H128.817V0.796875H131.301C131.855 0.796875 132.403 0.905977 132.915 1.11792C133.427 1.32986 133.891 1.64049 134.283 2.03211C134.675 2.42373 134.985 2.88867 135.197 3.40034C135.409 3.91202 135.518 4.46042 135.518 5.01425Z" fill="#394A8F"/>
<path d="M190.156 9.41797C189.315 9.42431 188.479 9.55051 187.673 9.79282C186.9 10.066 186.161 10.4277 185.471 10.8706C184.788 11.3293 184.173 11.8814 183.643 12.5107C183.101 13.1338 182.672 13.8476 182.378 14.6194V9.93343H180.222C179.668 9.93343 179.12 10.0425 178.608 10.2544C178.097 10.4664 177.632 10.777 177.24 11.1687C176.848 11.5603 176.538 12.0252 176.326 12.5369C176.114 13.0485 176.005 13.5969 176.005 14.1508V34.4879H182.706V23.4759C182.691 22.451 182.802 21.4282 183.034 20.43C183.208 19.5336 183.576 18.6861 184.112 17.9464C184.654 17.2271 185.361 16.6485 186.173 16.2595C187.165 15.8371 188.235 15.6295 189.313 15.6503H190.578H191V9.51167L190.156 9.41797Z" fill="#394A8F"/>
<path d="M111.338 28.6312C111.931 29.1522 112.622 29.5492 113.37 29.7987C114.119 30.0482 114.91 30.1451 115.696 30.0838C116.925 30.1102 118.132 29.7674 119.164 29.0998C119.99 28.6105 120.62 27.8482 120.945 26.9442H126.849C126.177 29.4836 124.635 31.7061 122.491 33.2234C120.362 34.5165 117.905 35.1674 115.415 35.0978C113.653 35.1111 111.905 34.7932 110.261 34.1606C108.764 33.5998 107.417 32.7018 106.324 31.5364C105.24 30.3692 104.396 28.9998 103.841 27.5065C103.265 25.8335 102.98 24.0743 102.997 22.3051C102.975 20.5621 103.277 18.83 103.888 17.1974C104.47 15.693 105.329 14.3105 106.418 13.1206C107.561 11.9913 108.893 11.0714 110.354 10.4028C111.957 9.73594 113.679 9.40118 115.415 9.41871C117.299 9.37813 119.164 9.79624 120.851 10.637C122.355 11.3974 123.657 12.5059 124.646 13.8704C125.667 15.275 126.399 16.8675 126.802 18.5563C127.245 20.3161 127.403 22.1354 127.271 23.9452H109.604C109.552 25.6731 110.174 27.3537 111.338 28.6312ZM118.883 15.7916C118.403 15.3244 117.828 14.9655 117.197 14.7391C116.567 14.5128 115.895 14.4243 115.228 14.4795C114.32 14.4505 113.419 14.6436 112.603 15.0419C111.931 15.3372 111.337 15.7867 110.87 16.3539C110.473 16.8746 110.171 17.4616 109.979 18.0877C109.825 18.6064 109.731 19.1409 109.698 19.681H120.57C120.383 18.252 119.799 16.9043 118.883 15.7916Z" fill="#394A8F"/>
<path d="M158.901 28.6314C160.106 29.6702 161.672 30.1922 163.259 30.0841C164.489 30.1224 165.7 29.7786 166.727 29.1C167.543 28.5867 168.181 27.8339 168.554 26.9445H174.412C173.738 29.4703 172.216 31.6875 170.101 33.2237C167.966 34.5046 165.513 35.1546 163.025 35.098C161.247 35.1173 159.482 34.7993 157.823 34.1609C156.335 33.6109 155.001 32.7108 153.934 31.5367C152.834 30.3813 151.988 29.0087 151.45 27.5068C150.836 25.8424 150.535 24.0792 150.56 22.3054C150.538 20.5623 150.839 18.8303 151.45 17.1977C152.033 15.6822 152.908 14.2968 154.028 13.1208C155.191 11.9166 156.591 10.966 158.139 10.3289C159.687 9.69185 161.351 9.38205 163.025 9.41897C164.908 9.38396 166.772 9.80177 168.46 10.6373C169.947 11.424 171.243 12.5278 172.256 13.8706C173.261 15.2784 173.978 16.8709 174.365 18.5566C174.831 20.3124 174.989 22.1356 174.833 23.9455H157.355C157.274 25.6448 157.825 27.314 158.901 28.6314ZM166.727 15.7919C166.247 15.3246 165.672 14.9657 165.041 14.7394C164.411 14.513 163.739 14.4245 163.072 14.4798C162.149 14.445 161.231 14.6381 160.401 15.0421C159.745 15.3437 159.167 15.7927 158.714 16.3542C158.299 16.8633 157.995 17.454 157.823 18.088C157.656 18.6054 157.546 19.1397 157.495 19.6812H168.414C168.206 18.2581 167.624 16.9157 166.727 15.7919Z" fill="#394A8F"/>
<path d="M24.1794 15.3223H8.48145L10.8713 17.7121C11.333 18.1732 11.881 18.5388 12.484 18.7881C13.087 19.0373 13.7333 19.1653 14.3858 19.1648H18.1814C19.2494 19.1676 20.3005 18.898 21.2352 18.3814C22.17 17.8648 22.9575 17.1184 23.5234 16.2126C23.6868 15.8788 23.909 15.5772 24.1794 15.3223Z" fill="#394A8F"/>
<path d="M14.3859 21.2279H17.6661C20.4987 21.2054 23.2952 21.8644 25.8197 23.1492C26.5405 23.5348 27.3452 23.7365 28.1627 23.7365C28.9801 23.7365 29.7849 23.5348 30.5057 23.1492C31.3167 22.7441 32.0124 22.141 32.5285 21.3956C33.0445 20.6502 33.3642 19.7867 33.4578 18.885C33.4881 17.9391 33.2597 17.0028 32.7973 16.1771C32.3349 15.3514 31.656 14.6674 30.8337 14.199C30.0527 13.6943 29.1393 13.4333 28.2095 13.4493H10.4966C9.22511 13.4693 7.96289 13.2303 6.78672 12.747C5.61055 12.2636 4.54504 11.5459 3.65507 10.6376L0 6.84203H28.1158C29.3256 6.83423 30.5286 7.02419 31.6771 7.40436C34.3229 8.25414 36.5804 10.0167 38.0465 12.3774C39.5126 14.738 40.0918 17.543 39.6807 20.2912C39.2696 23.0395 37.8949 25.5522 35.8022 27.3804C33.7095 29.2087 31.035 30.2335 28.2564 30.2719H28.0221C25.1321 30.1851 22.3239 29.2924 19.9144 27.6943C17.5049 26.0963 15.5901 23.8565 14.3859 21.2279Z" fill="#394A8F"/>
</g>
<defs>
<clipPath id="clip0_6977_36750">
<rect width="191" height="35.2385" fill="white"/>
</clipPath>
</defs>
</svg>
