<svg viewBox="0 0 800 500" xmlns="http://www.w3.org/2000/svg">
  <rect width="800" height="500" fill="#1B1D21"/>
  <g opacity="0.35" stroke="#F0ECE4" stroke-width="2">
    <line x1="0" y1="120" x2="800" y2="120"/>
    <line x1="0" y1="380" x2="800" y2="380"/>
  </g>
  <g transform="translate(400,230)">
    <path d="M -230 40 Q -230 -20 -170 -40 L -110 -80 Q -90 -92 -60 -92 L 60 -92 Q 90 -92 110 -80 L 170 -40 Q 230 -20 230 40 L 230 70 Q 230 90 210 90 L -210 90 Q -230 90 -230 70 Z" fill="#2E6B63" stroke="#F4C430" stroke-width="4"/>
    <circle cx="-140" cy="92" r="34" fill="#1B1D21" stroke="#F4C430" stroke-width="6"/>
    <circle cx="140" cy="92" r="34" fill="#1B1D21" stroke="#F4C430" stroke-width="6"/>
    <rect x="-70" y="-6" width="140" height="46" rx="6" fill="#F4C430"/>
    <text x="0" y="26" text-anchor="middle" font-family="'IBM Plex Mono', monospace" font-size="24" font-weight="600" fill="#1B1D21">AB 123 CD</text>
  </g>
  <text x="400" y="440" text-anchor="middle" font-family="'IBM Plex Mono', monospace" font-size="20" fill="#F4C430" letter-spacing="2">MARCA · MODELO · TIPO</text>
</svg>
