<svg viewBox="0 0 800 500" xmlns="http://www.w3.org/2000/svg">
  <rect width="800" height="500" fill="#1B1D21"/>
  <rect x="320" y="90" width="160" height="300" rx="26" fill="#24272D" stroke="#F0ECE4" stroke-width="3" opacity="0.9"/>
  <rect x="336" y="116" width="128" height="220" rx="6" fill="#1B1D21"/>
  <path d="M 336 260 L 380 260 L 396 220 L 412 300 L 428 240 L 444 260 L 464 260" fill="none" stroke="#E8592E" stroke-width="6" stroke-linecap="round" stroke-linejoin="round"/>
  <circle cx="400" cy="336" r="10" fill="#F4C430"/>
  <g opacity="0.85">
    <path d="M 205 150 Q 205 120 232 118 Q 240 96 262 100 Q 285 84 300 108 Q 322 108 320 132 Q 336 146 320 164 Q 320 186 296 184 L 296 210 L 262 210 L 262 184 Q 226 190 214 168 Q 196 168 205 150 Z" fill="none" stroke="#2E6B63" stroke-width="5"/>
    <path d="M 610 340 Q 610 310 583 308 Q 575 286 553 290 Q 530 274 515 298 Q 493 298 495 322 Q 479 336 495 354 Q 495 376 519 374 L 519 400 L 553 400 L 553 374 Q 589 380 601 358 Q 619 358 610 340 Z" fill="none" stroke="#2E6B63" stroke-width="5"/>
  </g>
  <text x="400" y="440" text-anchor="middle" font-family="'IBM Plex Mono', monospace" font-size="20" fill="#2E6B63" letter-spacing="2">UX RESEARCH · MOBILE APP</text>
</svg>
